<svg width="187" height="131" viewBox="0 0 187 131" fill="none" xmlns="http://www.w3.org/2000/svg">
<path d="M1.00002 131C1.00002 106.6 10.7455 83.1995 28.0926 65.9462C45.4397 48.6928 68.9675 39 93.5 39C118.033 39 141.56 48.6928 158.907 65.9462C176.254 83.1995 186 106.6 186 131" stroke="#7F9E67" stroke-width="2"/>
<path d="M94 88L102.66 73L85.3397 73L94 88ZM92.5 6.55671e-08L92.5 74.5L95.5 74.5L95.5 -6.55671e-08L92.5 6.55671e-08Z" fill="#7F9E67"/>
<path d="M54.99 130V117.13H64.458V119.326H57.6V122.206H63.612V124.348H57.6V127.822H64.512V130H54.99ZM65.2885 130L69.4465 123.268L65.5945 117.13H68.5285L70.9045 121.198H70.9405L73.3165 117.13H76.1605L72.3805 123.25L76.6465 130H73.6045L70.9765 125.302H70.9405L68.2765 130H65.2885ZM77.7888 130V117.13H83.4408C84.9048 117.13 86.0268 117.532 86.8068 118.336C87.5748 119.128 87.9588 120.106 87.9588 121.27C87.9588 122.494 87.5748 123.478 86.8068 124.222C86.0388 124.966 84.9888 125.338 83.6568 125.338H80.4888V130H77.7888ZM80.4888 119.398V123.214H83.1888C83.8608 123.214 84.3768 123.046 84.7368 122.71C85.0968 122.362 85.2768 121.888 85.2768 121.288C85.2768 120.688 85.0968 120.226 84.7368 119.902C84.3768 119.566 83.8728 119.398 83.2248 119.398H80.4888ZM89.2498 130V117.13H91.8598V127.822H97.9078V130H89.2498ZM108.912 128.416C107.784 129.664 106.284 130.288 104.412 130.288C102.54 130.288 101.034 129.664 99.8935 128.416C98.7655 127.156 98.2015 125.548 98.2015 123.592C98.2015 121.636 98.7655 120.028 99.8935 118.768C101.034 117.508 102.54 116.878 104.412 116.878C106.284 116.878 107.784 117.508 108.912 118.768C110.04 120.028 110.604 121.636 110.604 123.592C110.604 125.548 110.04 127.156 108.912 128.416ZM101.784 126.868C102.408 127.72 103.29 128.146 104.43 128.146C105.57 128.146 106.44 127.726 107.04 126.886C107.64 126.034 107.94 124.936 107.94 123.592C107.94 122.248 107.64 121.15 107.04 120.298C106.44 119.446 105.57 119.02 104.43 119.02C103.29 119.02 102.408 119.446 101.784 120.298C101.172 121.15 100.866 122.248 100.866 123.592C100.866 124.924 101.172 126.016 101.784 126.868ZM112.031 130V117.13H117.935C119.171 117.13 120.167 117.46 120.923 118.12C121.691 118.78 122.075 119.644 122.075 120.712C122.075 122.356 121.289 123.394 119.717 123.826V123.88C120.329 124.06 120.785 124.348 121.085 124.744C121.397 125.128 121.595 125.704 121.679 126.472C121.703 126.76 121.727 127.102 121.751 127.498C121.787 127.882 121.811 128.188 121.823 128.416C121.847 128.644 121.871 128.872 121.895 129.1C121.931 129.328 121.973 129.508 122.021 129.64C122.081 129.76 122.153 129.838 122.237 129.874V130H119.735C119.687 129.976 119.645 129.934 119.609 129.874C119.573 129.802 119.543 129.706 119.519 129.586C119.495 129.466 119.471 129.346 119.447 129.226C119.435 129.094 119.417 128.932 119.393 128.74C119.381 128.536 119.369 128.362 119.357 128.218C119.345 128.062 119.327 127.864 119.303 127.624C119.291 127.372 119.279 127.174 119.267 127.03C119.159 125.566 118.319 124.834 116.747 124.834H114.641V130H112.031ZM114.641 119.236V122.818H117.413C118.097 122.818 118.619 122.656 118.979 122.332C119.351 122.008 119.537 121.582 119.537 121.054C119.537 120.514 119.363 120.076 119.015 119.74C118.667 119.404 118.157 119.236 117.485 119.236H114.641ZM123.756 130V117.13H133.224V119.326H126.366V122.206H132.378V124.348H126.366V127.822H133.278V130H123.756Z" fill="#7F9E67"/>
</svg>
