<?xml version="1.0" encoding="utf-8"?>
<!-- Uploaded to: SVG Repo, www.svgrepo.com, Generator: SVG Repo Mixer Tools -->
<svg width="800px" height="800px" viewBox="0 0 48 48" fill="none" xmlns="http://www.w3.org/2000/svg">
<g id="mail">
<g id="mail_2">
<path id="Combined Shape" fill-rule="evenodd" clip-rule="evenodd" d="M41 10C42.6563 10 44 11.3437 44 13V35C44 36.6563 42.6563 38 41 38H7C5.34372 38 4 36.6563 4 35V13C4 11.3437 5.34372 10 7 10H41ZM39.96 12H7C6.44828 12 6 12.4483 6 13V34.7684L17.6255 23.0867L9.77548 15.7357C9.37235 15.3582 9.35157 14.7254 9.72907 14.3223C10.1066 13.9191 10.7394 13.8984 11.1425 14.2759L23.4257 25.792C23.7715 26.0336 24.2295 26.0336 24.4798 25.8669L39.96 12ZM40.0908 36H7.596L19.086 24.4543L22.1695 27.3417C23.3145 28.154 24.6885 28.154 25.7208 27.4308L41.991 12.8655C41.9969 12.9095 42 12.9544 42 13V35C42 35.0268 41.9989 35.0534 41.9969 35.0797L32.6986 25.7424C32.3089 25.351 31.6757 25.3497 31.2844 25.7394C30.893 26.1291 30.8917 26.7623 31.2814 27.1536L40.0908 36Z" fill="#000000"/>
</g>
</g>
</svg>