<svg width="1736" height="319" viewBox="0 0 1736 319" fill="none" xmlns="http://www.w3.org/2000/svg">
<path d="M1735.03 156.586C1735.03 252.302 1702.99 315.66 1615.63 315.66C1528.28 315.66 1496.62 251.395 1496.62 156.586C1496.62 61.7777 1528.28 3.56177 1615.63 3.56177C1702.99 3.56177 1735.03 61.7777 1735.03 156.586ZM1566.81 159.611C1566.81 204.066 1572.91 276.647 1615.63 276.647C1660.65 276.647 1664.84 204.066 1664.84 159.611C1664.84 115.155 1660.65 42.574 1616.78 42.574C1572.91 42.574 1566.81 115.155 1566.81 159.611Z" fill="#427D9D"/>
<path d="M1442.49 309.762C1428.76 309.762 1419.22 309.762 1400.91 311.123C1406.26 257.595 1406.64 226.294 1406.64 157.796C1406.64 113.794 1406.64 38.4913 1395.19 4.92265V3.56177C1420.75 4.92266 1425.71 4.92265 1439.44 4.92265C1450.12 4.92265 1460.8 4.92266 1478.73 3.56177C1473.39 44.3885 1473.01 109.711 1473.01 159.157C1473.01 203.613 1474.16 272.565 1480.64 311.123C1465 310.216 1456.23 309.762 1442.49 309.762Z" fill="#427D9D"/>
<path d="M1369.33 311.123C1342.63 309.762 1328.9 309.762 1287.7 309.762C1259.85 309.762 1247.27 309.762 1216.37 311.123C1224.38 248.522 1222.85 186.375 1222.85 157.796C1222.85 141.012 1224.38 37.5841 1215.6 3.56177C1237.35 4.92266 1241.93 4.92265 1254.51 4.92265C1267.1 4.92265 1276.64 4.92266 1294.95 3.56177C1288.85 33.955 1289.23 129.671 1289.23 156.435C1289.23 177.756 1288.46 253.966 1294.57 263.038C1297.62 267.575 1301.43 270.297 1309.83 270.297C1336.91 270.297 1363.99 263.492 1375.82 253.512H1378.49C1374.31 272.438 1371.25 291.689 1369.33 311.123Z" fill="#427D9D"/>
<path d="M1199.06 162.345C1199.06 258.061 1167.02 318.394 1079.66 318.394C992.308 318.394 960.646 257.154 960.646 162.345C960.646 67.5366 992.308 6.29651 1079.66 6.29651C1167.02 6.29651 1199.06 67.5366 1199.06 162.345ZM1030.84 162.345C1030.84 206.801 1036.94 279.382 1079.66 279.382C1124.67 279.382 1128.87 206.801 1128.87 162.345C1128.87 117.89 1124.67 45.3087 1080.81 45.3087C1036.94 45.3087 1030.84 117.89 1030.84 162.345Z" fill="#427D9D"/>
<path d="M901.09 179.484C913.983 179.726 937.964 197.024 947.717 198.884C940.669 187.784 941.133 161.272 941.133 158.091C941.133 154.909 949.012 119.913 949.802 119.121C926.533 122.145 899.818 140.471 901.09 140.471C901.09 102.82 901.471 66.076 903.76 44.7554C920.975 44.7565 938.159 46.4813 955.13 49.9116C965.964 31.4337 991.854 10.6166 992.115 10.6827C992.579 10.1525 999.531 5.63527 1000.07 5.62016C955.13 5.09124 910.615 5.6201 910.615 5.6201C884.618 5.3197 849.364 6.98668 826.654 5.74315L827.783 8.4956C833.808 20.161 834.665 99.6447 834.665 160.431C834.665 234.373 833.139 271.117 827.798 313.305C841.531 312.397 854.119 311.944 867.852 311.944C881.584 311.944 895.698 311.944 909.431 313.305C902.616 289.716 900.708 225.3 901.09 179.484Z" fill="#427D9D"/>
<path d="M711.817 6.74589C683.208 6.74589 678.63 6.7459 612.637 5.38501V6.00498C631.71 15.0776 640.281 31.9526 643.676 48.7067C655.716 46.143 667.924 44.8527 680.156 44.8509C681.3 62.0888 681.301 128.773 681.301 156.898C681.301 182.755 680.156 268.037 674.816 312.947C696.177 311.586 698.848 311.586 715.251 311.586C731.272 311.586 733.179 312.039 754.541 312.947C747.293 280.739 747.675 182.755 747.675 156.898C747.675 126.504 746.912 58.4598 748.819 44.8509C778.955 44.8509 800.698 52.109 814.431 60.7279H816.694C818.321 42.0563 821.126 23.5565 825.086 5.38501C764.459 6.7459 743.86 6.74589 711.817 6.74589Z" fill="#427D9D"/>
<path d="M607.134 312.144C595.309 312.144 590.35 312.144 567.844 313.504C563.93 287.221 558.837 261.206 552.585 235.569C541.141 189.805 532.368 173.04 502.232 177.571C502.232 247.35 507.191 297.192 510.243 313.504C488.5 312.144 480.108 312.144 468.283 312.144C454.931 312.144 453.406 312.144 430.518 313.504C435.858 266.38 435.858 189.352 435.858 163.525C435.858 137.698 437.766 47.0762 427.466 8.10896V6.29651C465.994 7.65583 474.386 7.65578 486.211 7.65578C497.655 7.65578 517.491 6.29651 561.359 6.29651C617.433 6.29651 628.114 47.0762 628.114 75.622C628.114 129.089 592.638 152.65 568.988 156.728V157.635C602.938 156.275 609.423 194.336 623.537 240.553C626.207 249.615 638.795 293.567 649.857 310.332L651.253 312.592C628.366 311.233 617.815 312.144 607.134 312.144ZM559.451 84.231C559.451 60.6694 550.678 42.0921 527.409 42.0921C515.584 42.0921 511.388 42.092 504.521 42.9982C504.14 52.5135 502.614 77.8876 502.614 87.8559C502.614 102.809 502.232 126.823 502.232 139.057C506.81 139.51 514.821 139.963 518.635 139.963C539.616 139.963 559.451 129.542 559.451 84.231Z" fill="#427D9D"/>
<path d="M291.704 5.38501C254.346 5.38501 227.173 16.5897 208.304 36.8216C215.17 49.5838 218.59 66.1866 218.59 86.721C218.59 140.658 198.983 170.915 173.438 185.673C178.702 266.54 212.042 317.468 291.691 317.468C379.046 317.468 411.089 257.135 411.089 161.419C411.101 66.6252 379.059 5.38501 291.704 5.38501ZM291.704 278.471C248.98 278.471 242.877 205.89 242.877 161.434C242.877 116.978 248.98 44.3972 292.848 44.3972C336.716 44.3972 340.912 116.978 340.912 161.434C340.912 205.89 336.716 278.471 291.704 278.471Z" fill="#427D9D"/>
<path d="M85.2299 188.16L91.1707 155.68C115.647 164.463 136.905 151.986 137.441 88.7417C137.816 44.4704 119.374 36.6402 101.623 36.4959C93.7915 36.3144 85.9578 36.8548 78.1915 38.1124C77.195 66.5663 75.262 116.397 74.9648 151.483C74.4595 211.113 75.8504 269.856 81.2018 306.945C63.0845 305.443 55.1532 305.378 41.5566 305.267C28.3377 305.16 26.4493 305.145 2.26606 306.303C8.37528 253.947 9.01061 178.957 9.22877 153.207C9.37804 135.589 11.0826 23.5616 2.5796 1.8071L2.59491 0C38.8372 2.10181 41.4848 1.6716 54.7037 1.77909C79.8826 1.98383 108.724 0.862974 133.273 1.06259C182.75 1.46491 207.073 28.3177 206.606 83.4309C205.848 187.786 132.322 202.548 85.2299 188.16Z" fill="#427D9D"/>
</svg>
